<svg width="35" height="35" viewBox="0 0 35 35" fill="none" xmlns="http://www.w3.org/2000/svg">
<path fill-rule="evenodd" clip-rule="evenodd" d="M13.7487 4.31992C15.444 1.48711 19.5543 1.48711 21.2518 4.31992L34.3615 26.1884C36.1093 29.1043 34.0093 32.8121 30.6078 32.8121H4.39276C0.9912 32.8121 -1.1088 29.1043 0.639012 26.1884L13.7487 4.31992ZM17.5003 10.9371C17.9354 10.9371 18.3527 11.11 18.6604 11.4176C18.968 11.7253 19.1409 12.1426 19.1409 12.5777V19.1402C19.1409 19.5754 18.968 19.9927 18.6604 20.3003C18.3527 20.608 17.9354 20.7809 17.5003 20.7809C17.0651 20.7809 16.6478 20.608 16.3402 20.3003C16.0325 19.9927 15.8596 19.5754 15.8596 19.1402V12.5777C15.8596 12.1426 16.0325 11.7253 16.3402 11.4176C16.6478 11.11 17.0651 10.9371 17.5003 10.9371ZM19.6878 25.1559C19.6878 25.736 19.4573 26.2924 19.0471 26.7027C18.6368 27.1129 18.0804 27.3434 17.5003 27.3434C16.9201 27.3434 16.3637 27.1129 15.9535 26.7027C15.5432 26.2924 15.3128 25.736 15.3128 25.1559C15.3128 24.5757 15.5432 24.0193 15.9535 23.6091C16.3637 23.1988 16.9201 22.9684 17.5003 22.9684C18.0804 22.9684 18.6368 23.1988 19.0471 23.6091C19.4573 24.0193 19.6878 24.5757 19.6878 25.1559Z" fill="#FF8A00"/>
</svg>
