<svg width="35" height="35" viewBox="0 0 35 35" fill="none" xmlns="http://www.w3.org/2000/svg">
<path d="M17.5003 2.91699C9.43574 2.91699 2.91699 9.43574 2.91699 17.5003C2.91699 25.5649 9.43574 32.0837 17.5003 32.0837C25.5649 32.0837 32.0837 25.5649 32.0837 17.5003C32.0837 9.43574 25.5649 2.91699 17.5003 2.91699ZM23.7712 23.7712C23.2024 24.3399 22.2837 24.3399 21.7149 23.7712L17.5003 19.5566L13.2857 23.7712C12.717 24.3399 11.7982 24.3399 11.2295 23.7712C10.6607 23.2024 10.6607 22.2837 11.2295 21.7149L15.4441 17.5003L11.2295 13.2857C10.6607 12.717 10.6607 11.7982 11.2295 11.2295C11.7982 10.6607 12.717 10.6607 13.2857 11.2295L17.5003 15.4441L21.7149 11.2295C22.2837 10.6607 23.2024 10.6607 23.7712 11.2295C24.3399 11.7982 24.3399 12.717 23.7712 13.2857L19.5566 17.5003L23.7712 21.7149C24.3253 22.2691 24.3253 23.2024 23.7712 23.7712Z" fill="#EE5D50"/>
</svg>
