<svg width="35" height="35" viewBox="0 0 35 35" fill="none" xmlns="http://www.w3.org/2000/svg">
<g clip-path="url(#clip0_2731_10339)">
<path d="M17.4998 2.91602C9.44984 2.91602 2.9165 9.44935 2.9165 17.4993C2.9165 25.5493 9.44984 32.0827 17.4998 32.0827C25.5498 32.0827 32.0832 25.5493 32.0832 17.4993C32.0832 9.44935 25.5498 2.91602 17.4998 2.91602ZM13.5478 23.7556L8.31234 18.5202C7.74359 17.9514 7.74359 17.0327 8.31234 16.4639C8.88109 15.8952 9.79984 15.8952 10.3686 16.4639L14.5832 20.6639L24.6165 10.6306C25.1853 10.0618 26.104 10.0618 26.6728 10.6306C27.2415 11.1993 27.2415 12.1181 26.6728 12.6868L15.604 23.7556C15.0498 24.3243 14.1165 24.3243 13.5478 23.7556Z" fill="#05CD99"/>
</g>
<defs>
<clipPath id="clip0_2731_10339">
<rect width="35" height="35" fill="white"/>
</clipPath>
</defs>
</svg>
