<svg width="32" height="32" viewBox="0 0 32 32" fill="none" xmlns="http://www.w3.org/2000/svg">
<g clip-path="url(#clip0_2198_30995)">
<rect width="33" height="33" fill="url(#paint0_radial_2198_30995)"/>
<path d="M-4.48672 17.8762C-4.47344 17.9732 -4.43305 18.0643 -4.37028 18.1388C-4.30751 18.2134 -4.22497 18.2683 -4.13234 18.2972C-3.491 18.4966 -2.83242 18.6549 -2.16599 18.5536C-1.2237 18.3834 -0.254389 18.4497 0.656523 18.7467C1.54598 19.0281 2.49356 19.0658 3.4022 18.8559C4.48102 18.6343 5.29642 17.9823 6.024 17.1925L6.24666 16.9472C6.40347 17.661 6.53519 18.3605 6.69827 19.0537C6.9314 20.1189 7.46385 21.0937 8.23183 21.8613C8.8795 22.5432 9.41947 23.3214 9.83282 24.1688C10.17 24.813 10.2844 25.4603 10.0084 26.1772C9.74501 26.8918 9.67624 27.6646 9.8093 28.4151C9.83967 28.5967 9.83542 28.7826 9.79676 28.9627C9.56312 29.9597 9.32634 30.9568 9.06447 31.9475C8.97196 32.302 8.85905 32.6502 8.75086 33H23.2021C22.9199 31.908 22.611 30.8207 22.3365 29.7271C22.2283 29.2919 22.106 28.8139 22.1797 28.3913C22.3117 27.5993 22.226 26.7859 21.932 26.0395C21.8432 25.8083 21.8018 25.5613 21.8105 25.3134C21.8191 25.0656 21.8775 24.8221 21.9822 24.5977C22.5059 23.3965 23.2742 22.3678 24.143 21.404C24.3955 21.1249 24.6068 20.8103 24.7702 20.4702C25.1808 19.5764 25.4643 18.6285 25.6122 17.6547C25.653 17.4204 25.6844 17.1799 25.7173 16.971C25.9462 17.1862 26.1673 17.3888 26.3853 17.5961C26.9498 18.1326 27.5676 18.5884 28.3328 18.7815C29.4749 19.0687 30.676 19.0059 31.7826 18.6011C32.3121 18.4001 32.8872 18.354 33.4416 18.4681C34.2778 18.6481 35.1461 18.6062 35.9614 18.3463C36.1036 18.3092 36.2308 18.2283 36.3252 18.1148C36.4196 18.0013 36.4767 17.861 36.4883 17.7132C36.5564 17.2328 36.6538 16.7571 36.78 16.2889C37.148 15.0463 37.3018 13.7492 37.2347 12.4541C37.15 10.7749 37.1343 9.09098 37.1202 7.40863C37.1202 6.96074 37.0983 6.54767 36.8396 6.16151C36.7291 5.96389 36.6388 5.7555 36.5698 5.53953C36.2076 4.64375 35.8548 3.74639 35.48 2.85695C35.4485 2.78656 35.403 2.72344 35.3463 2.67145C35.2897 2.61947 35.2232 2.57973 35.1507 2.55466C34.4587 2.40695 33.763 2.28034 33.0637 2.17483C32.7344 2.12577 32.5368 2.28086 32.4741 2.61163C32.456 2.80799 32.456 3.00561 32.4741 3.20196C32.1213 3.20196 31.8657 3.83502 32.0162 4.30981C32.0977 4.30981 32.173 4.29399 32.2624 4.29241C32.5117 4.29241 32.8096 4.37312 32.9931 4.26234C33.1766 4.15155 33.2346 3.8366 33.3694 3.62928C33.5619 3.3217 33.8327 3.07192 34.1535 2.90601C33.6235 3.3808 33.4118 3.62294 33.186 4.14047C33.084 4.3747 32.9805 4.457 32.7155 4.38103C32.5607 4.34837 32.3998 4.36268 32.253 4.42218C32.1914 4.44214 32.1348 4.47522 32.087 4.51918C32.0392 4.56314 32.0013 4.61695 31.9758 4.67698C31.9504 4.737 31.938 4.80184 31.9396 4.8671C31.9412 4.93236 31.9566 4.99652 31.9848 5.05524C32.2577 5.55219 32.5195 6.04281 33.1985 6.12827C33.6517 6.18525 34.0892 6.38941 34.5251 6.54925C34.8199 6.65687 34.9187 6.89111 34.8842 7.2108C34.7917 8.05593 34.7148 8.90106 34.6396 9.74303C34.6027 10.1828 34.4217 10.5977 34.1252 10.9221C33.5117 11.6277 33.095 12.4853 32.9178 13.4069C32.8677 13.6458 32.8159 13.8816 32.761 14.1586C32.6638 14.0462 32.6042 13.9655 32.5321 13.8975C32.0397 13.4353 31.5912 12.9194 31.0424 12.5253C30.6186 12.1985 30.1176 11.9892 29.5889 11.9181C29.0603 11.847 28.5224 11.9167 28.0286 12.1202L27.5896 12.2863C27.5488 12.1866 27.5174 12.1091 27.4845 12.0331C27.1176 11.1896 26.5672 10.5296 25.6687 10.2368C24.6529 9.8945 23.5466 9.95101 22.5702 10.3951C22.371 10.4821 22.1844 10.5977 21.943 10.7259C23.5393 11.0424 24.1884 11.4681 24.4033 12.3401C23.9548 11.6928 23.3197 11.5488 22.6564 11.4634C22.3914 11.4301 22.1249 11.4127 21.8599 11.3937C20.527 11.2988 19.1941 11.2228 17.8629 11.3716C17.4975 11.4127 17.1353 11.4966 16.7652 11.5599C18.2956 11.0091 19.9202 10.9996 21.5557 10.7227C21.4592 10.6517 21.3592 10.5857 21.2562 10.5249C20.5239 10.1608 19.7884 9.80476 19.0609 9.43442C19.0296 9.4118 18.9941 9.39587 18.9566 9.38759C18.919 9.37931 18.8802 9.37886 18.8425 9.38627C18.8047 9.39368 18.7689 9.40879 18.7372 9.43068C18.7054 9.45256 18.6784 9.48077 18.6579 9.51355C18.4744 9.72721 18.2643 9.9187 18.0667 10.1197L18.0134 10.0722C18.1341 9.83483 18.2753 9.60534 18.3725 9.35845C18.5061 9.08012 18.5945 8.78196 18.6344 8.47534C18.6641 7.73624 18.6344 6.99556 18.6202 6.25963C18.6131 6.20328 18.601 6.14767 18.5842 6.09345C17.9193 6.97973 17.4175 7.43395 17.0788 7.45611C17.2356 7.2836 17.4097 7.10635 17.579 6.93542C18.1976 6.35596 18.5683 5.55611 18.6124 4.70547C18.629 4.57559 18.6062 4.44366 18.5468 4.3272C18.4874 4.21074 18.3944 4.11526 18.28 4.05343C18.1843 3.99803 18.0949 3.92998 17.9977 3.86509C18.4525 3.40454 18.4917 3.34282 18.3976 3.12125C18.189 2.63379 17.7704 2.58948 17.3235 2.62746C17.5255 2.36992 17.705 2.09508 17.8597 1.80607C18.0165 1.4658 17.8158 1.17301 17.5712 0.921371C17.7236 0.94423 17.8666 1.01006 17.9836 1.11129C18.2035 1.35039 18.3788 1.62757 18.5011 1.92951C18.636 2.43925 18.7407 2.95663 18.8147 3.47893C18.8476 3.6546 18.8664 3.83185 18.8899 4.00753H18.9872C19.0577 3.64827 19.144 3.29217 19.1973 2.92975C19.3149 2.06721 19.1769 1.2648 18.5701 0.59851C18.5215 0.549165 18.4847 0.489335 18.4624 0.423534C18.4402 0.357734 18.433 0.287683 18.4415 0.218676C18.4697 -0.205473 18.3113 -0.552072 17.9162 -0.73091C17.6519 -0.871655 17.3634 -0.96028 17.0663 -0.992046C16.2932 -1.01262 15.5186 -0.992048 14.7456 -0.944568C14.2997 -0.911032 13.8791 -0.722547 13.5554 -0.411213C13.2779 -0.154825 13.2543 -0.0519557 13.4096 0.293061C13.4422 0.350206 13.4554 0.416555 13.4472 0.48199C13.439 0.547425 13.4098 0.608357 13.3641 0.655488C13.0818 1.01475 12.8404 1.40566 12.8137 1.87571C12.7841 2.28692 12.7899 2.69996 12.831 3.11017C12.8936 3.50796 12.9774 3.90207 13.0818 4.29082L13.1744 4.275C13.1744 4.18478 13.1744 4.09299 13.1916 4.00278C13.2967 3.30642 13.386 2.60689 13.5162 1.91527C13.5899 1.5565 13.7857 1.23509 14.0697 1.00684C14.2736 0.837492 14.4962 0.834325 14.8036 0.921371C14.6562 0.975181 14.5778 1.00051 14.5025 1.03216C14.1889 1.16193 14.0635 1.40883 14.1889 1.72219C14.2962 1.93869 14.4238 2.14432 14.5699 2.33626C14.6264 2.42014 14.7001 2.49452 14.7926 2.60372C14.3222 2.58631 13.9506 2.65911 13.695 3.01679C13.5209 3.25577 13.5381 3.35865 13.7624 3.55015C13.8706 3.64352 13.9662 3.74956 14.076 3.86667C13.9976 3.9189 13.9647 3.94422 13.9302 3.9648C13.3563 4.28133 13.3029 4.42535 13.3845 5.0948C13.4723 5.79592 13.8471 6.32452 14.3175 6.80723C14.526 7.01772 14.7236 7.23929 14.9212 7.45136C14.3175 7.14908 13.8721 6.64263 13.3939 6.10928C13.3829 6.26754 13.3672 6.37991 13.3672 6.49545C13.3672 7.10951 13.3892 7.72358 13.3813 8.33765C13.3746 8.65691 13.4526 8.97219 13.6071 9.25083C13.764 9.54045 13.8847 9.85065 14.0211 10.1529L13.9584 10.1941C13.7326 9.95194 13.5037 9.71929 13.2826 9.46607C13.2413 9.40829 13.1792 9.36925 13.1096 9.3574C13.0401 9.34555 12.9687 9.36185 12.9109 9.40276C12.1739 9.77468 11.4307 10.1339 10.6906 10.5011C10.6074 10.5423 10.5337 10.6008 10.3895 10.6895C10.7031 10.7385 10.9383 10.7812 11.1735 10.8129C12.2225 10.9506 13.2747 11.0725 14.3206 11.2244C14.6572 11.2927 14.9892 11.3821 15.3148 11.4919L15.2975 11.5504C15.0269 11.4767 14.7527 11.4175 14.4759 11.3732C12.6239 11.1907 10.7565 11.247 8.91864 11.5409C8.53391 11.5827 8.17298 11.7493 7.88999 12.0157C7.81943 12.0869 7.74573 12.155 7.67203 12.2246C8.11109 11.1943 8.97823 10.843 10.0053 10.7211C9.27616 10.1197 8.42784 9.98201 7.54502 10.0263C6.03497 10.1007 4.90597 10.7464 4.43869 12.3038L4.20505 12.2009C3.78773 11.9943 3.32832 11.8892 2.86354 11.8938C2.39877 11.8985 1.94152 12.0129 1.52836 12.2278C0.844302 12.5682 0.241414 13.0541 -0.23884 13.6522C-0.395646 13.8405 -0.552454 14.0193 -0.750029 14.2377L-0.809616 13.9212C-0.975831 12.9843 -1.20634 12.0489 -1.81474 11.3146C-2.40385 10.6328 -2.72172 9.75491 -2.70697 8.85042C-2.70697 8.23002 -2.80419 7.60963 -2.86378 6.99081C-2.87266 6.92473 -2.86154 6.85747 -2.83187 6.79788C-2.80221 6.73829 -2.75539 6.68914 -2.69756 6.65687C-2.31498 6.38109 -1.86717 6.21187 -1.39921 6.16626C-0.761008 6.11561 -0.372128 5.78009 -0.0898765 5.23724C0.0669297 4.93654 0.0669282 4.69598 -0.169849 4.46333C-0.223163 4.4111 -0.282747 4.36679 -0.362718 4.30507H0.0528176C0.00263962 4.03602 -0.0349959 3.78279 -0.0961503 3.53432C-0.147896 3.33016 -0.218456 3.12283 -0.51482 3.2257C-0.51482 3.16398 -0.51482 3.13233 -0.51482 3.09909C-0.422304 2.30777 -0.63556 2.07195 -1.40548 2.18115C-1.9873 2.26944 -2.5633 2.39311 -3.13035 2.5515C-3.30653 2.61764 -3.45267 2.74654 -3.54118 2.91392C-3.73588 3.29513 -3.91019 3.68661 -4.06334 4.08666C-4.35187 4.80202 -4.60746 5.5332 -4.91637 6.23906C-5.05662 6.56983 -5.12506 6.92707 -5.11708 7.28677C-5.1312 8.79978 -5.17196 10.3128 -5.19862 11.8274C-5.21273 12.6488 -5.30682 13.4844 -5.19862 14.2916C-5.03554 15.4975 -4.73291 16.6829 -4.48672 17.8762ZM21.1527 14.711C21.8761 14.4124 22.5979 14.1101 23.3182 13.8041C23.545 13.7179 23.7508 13.5836 23.9218 13.4102C24.0927 13.2368 24.2249 13.0285 24.3092 12.7991C24.3465 12.7244 24.3923 12.6543 24.4456 12.5902L24.5412 12.6329C24.4581 12.8688 24.4158 13.1346 24.2778 13.3309C24.107 13.5769 23.8915 13.788 23.6427 13.9529C22.8085 14.4894 21.9571 14.999 21.1056 15.5086C20.585 15.8251 20.3326 15.7413 19.9954 15.1731C20.3843 15.0132 20.7701 14.8645 21.1527 14.7062V14.711ZM20.1099 19.1424L16.8452 18.3621C17.9722 18.4049 19.0806 18.666 20.1099 19.1313V19.1424ZM16.0047 12.8988C16.1929 13.7091 16.2493 14.521 16.0047 15.3345C15.7895 14.5334 15.7895 13.6889 16.0047 12.8877V12.8988ZM15.2411 18.3542L11.9152 19.1582C12.9594 18.6669 14.0899 18.3898 15.2411 18.3431V18.3542ZM7.6297 12.6234C7.68928 12.7311 7.75671 12.8339 7.80689 12.94C7.89444 13.1361 8.01982 13.3127 8.17569 13.4594C8.33157 13.6062 8.51483 13.7201 8.71479 13.7946C9.75755 14.2187 10.8019 14.6366 11.8509 15.0607L12.0579 15.1398C11.8431 15.6526 11.5875 15.7729 11.0982 15.5672C10.8489 15.4519 10.6079 15.3192 10.3769 15.1699C9.66817 14.7458 8.95627 14.3264 8.25692 13.8864C7.7818 13.5809 7.59833 13.2059 7.6297 12.6124V12.6234ZM-1.33021 3.72582C-1.27914 3.79179 -1.23401 3.86223 -1.19536 3.93631C-1.07148 4.19112 -0.949174 4.43959 -0.588519 4.3478L-1.02914 4.48391C-1.27701 3.87059 -1.67521 3.33091 -2.18637 2.9155C-1.84604 3.11487 -1.55366 3.38781 -1.33021 3.71474V3.72582ZM-1.53406 4.06292C-1.73477 3.84926 -1.92294 3.62136 -2.1409 3.42986C-2.35886 3.23836 -2.59564 3.07852 -2.82614 2.90601C-2.28334 3.13579 -1.82967 3.53811 -1.53406 4.05184V4.06292Z" fill="url(#paint1_radial_2198_30995)"/>
<g filter="url(#filter0_d_2198_30995)">
<path d="M17.8684 12.8368V9.73448L19.9211 11.7979L21.9028 9.80537L18.4485 6.33375L16.4669 4.3418L14.4852 6.33434L11.031 9.80656L13.0126 11.7985L15.0654 9.73508V12.8374C13.3134 13.1665 11.731 14.1012 10.5923 15.4795C9.45354 16.8578 8.83016 18.593 8.83008 20.3846C8.83024 22.4205 9.6349 24.3729 11.0671 25.8124C12.4992 27.2519 14.4416 28.0605 16.4669 28.0605C17.4699 28.0608 18.4632 27.8624 19.3899 27.4767C20.3167 27.091 21.1587 26.5256 21.8681 25.8128C22.5774 25.0999 23.1401 24.2536 23.524 23.3221C23.9079 22.3906 24.1055 21.3923 24.1055 20.384C24.1052 18.5922 23.4815 16.8568 22.3425 15.4785C21.2034 14.1002 19.6207 13.1657 17.8684 12.8368ZM16.4669 25.4652C15.1258 25.4652 13.8396 24.9297 12.8913 23.9764C11.943 23.0232 11.4103 21.7303 11.4103 20.3822C11.4104 19.0342 11.9432 17.7414 12.8915 16.7882C13.8397 15.835 15.1258 15.2995 16.4669 15.2993C17.1309 15.2993 17.7885 15.4308 18.402 15.6862C19.0155 15.9417 19.5729 16.3161 20.0425 16.7881C20.512 17.2601 20.8845 17.8204 21.1386 18.4371C21.3927 19.0538 21.5235 19.7147 21.5235 20.3822C21.5238 21.0499 21.3931 21.711 21.1391 22.3279C20.8851 22.9448 20.5127 23.5054 20.0431 23.9776C19.5735 24.4498 19.016 24.8243 18.4024 25.0799C17.7888 25.3354 17.1311 25.467 16.4669 25.467V25.4652Z" fill="url(#paint2_linear_2198_30995)"/>
</g>
</g>
<defs>
<filter id="filter0_d_2198_30995" x="8.57227" y="4.3418" width="15.791" height="24.2344" filterUnits="userSpaceOnUse" color-interpolation-filters="sRGB">
<feFlood flood-opacity="0" result="BackgroundImageFix"/>
<feColorMatrix in="SourceAlpha" type="matrix" values="0 0 0 0 0 0 0 0 0 0 0 0 0 0 0 0 0 0 127 0" result="hardAlpha"/>
<feOffset dy="0.257813"/>
<feGaussianBlur stdDeviation="0.128906"/>
<feComposite in2="hardAlpha" operator="out"/>
<feColorMatrix type="matrix" values="0 0 0 0 0 0 0 0 0 0 0 0 0 0 0 0 0 0 0.25 0"/>
<feBlend mode="normal" in2="BackgroundImageFix" result="effect1_dropShadow_2198_30995"/>
<feBlend mode="normal" in="SourceGraphic" in2="effect1_dropShadow_2198_30995" result="shape"/>
</filter>
<radialGradient id="paint0_radial_2198_30995" cx="0" cy="0" r="1" gradientUnits="userSpaceOnUse" gradientTransform="translate(16.5 16.5) rotate(90) scale(16.5)">
<stop stop-color="#2D374D"/>
<stop offset="1" stop-color="#0C0D0F"/>
</radialGradient>
<radialGradient id="paint1_radial_2198_30995" cx="0" cy="0" r="1" gradientUnits="userSpaceOnUse" gradientTransform="translate(16 16) rotate(179.867) scale(14.1777 17.6644)">
<stop stop-color="#4B5F83"/>
<stop offset="1" stop-color="#1C2B46"/>
</radialGradient>
<linearGradient id="paint2_linear_2198_30995" x1="8.83008" y1="16.2012" x2="24.1055" y2="16.2012" gradientUnits="userSpaceOnUse">
<stop stop-color="#C80018"/>
<stop offset="1" stop-color="#FF2E00"/>
</linearGradient>
<clipPath id="clip0_2198_30995">
<rect width="32" height="32" rx="7.73438" fill="white"/>
</clipPath>
</defs>
</svg>
